<svg width="30" height="32" viewBox="0 0 30 32" fill="none" xmlns="http://www.w3.org/2000/svg">
<path d="M3.33333 21.3333V10.6666H9.99999V21.3333H3.33333ZM28.3333 11.5555C28.7934 11.5555 29.1862 11.7291 29.5117 12.0764C29.8372 12.4236 30 12.8426 30 13.3333V18.6666C30 19.1574 29.8372 19.5764 29.5117 19.9236C29.1862 20.2708 28.7934 20.4444 28.3333 20.4444V22.6666C28.3333 23.2778 28.1293 23.8009 27.7214 24.2361C27.3134 24.6713 26.8229 24.8889 26.25 24.8889H2.08333C1.51041 24.8889 1.01997 24.6713 0.611987 24.2361C0.203996 23.8009 0 23.2778 0 22.6666V9.33332C0 8.7222 0.203996 8.19904 0.611987 7.76385C1.01997 7.32867 1.51041 7.11108 2.08333 7.11108H26.25C26.8229 7.11108 27.3134 7.32868 27.7214 7.76387C28.1293 8.19905 28.3333 8.7222 28.3333 9.33332V11.5555ZM28.3333 18.6666V13.3333H26.6667V9.33332C26.6667 9.20367 26.6276 9.09719 26.5495 9.01385C26.4714 8.93052 26.3715 8.88885 26.25 8.88885H2.08333C1.96181 8.88885 1.86199 8.93052 1.78386 9.01385C1.70574 9.09719 1.66667 9.20367 1.66667 9.33332V22.6666C1.66667 22.7963 1.70574 22.9028 1.78386 22.9861C1.86199 23.0694 1.96181 23.1111 2.08333 23.1111H26.25C26.3715 23.1111 26.4714 23.0694 26.5495 22.9861C26.6276 22.9028 26.6667 22.7963 26.6667 22.6666V18.6666L28.3333 18.6666Z" fill="black"/>
</svg>
