<svg width="25" height="24" viewBox="0 0 25 24" fill="none" xmlns="http://www.w3.org/2000/svg">
<path d="M20.8333 24H4.16667C3.0616 24 2.00179 23.5786 1.22039 22.8284C0.438987 22.0783 0 21.0609 0 20V4C0 2.93913 0.438987 1.92172 1.22039 1.17157C2.00179 0.421427 3.0616 0 4.16667 0H20.8333C21.9384 0 22.9982 0.421427 23.7796 1.17157C24.561 1.92172 25 2.93913 25 4V20C25 21.0609 24.561 22.0783 23.7796 22.8284C22.9982 23.5786 21.9384 24 20.8333 24ZM4.16667 2.66667C3.79831 2.66667 3.44504 2.80714 3.18457 3.05719C2.92411 3.30724 2.77778 3.64638 2.77778 4V20C2.77778 20.3536 2.92411 20.6928 3.18457 20.9428C3.44504 21.1929 3.79831 21.3333 4.16667 21.3333H20.8333C21.2017 21.3333 21.555 21.1929 21.8154 20.9428C22.0759 20.6928 22.2222 20.3536 22.2222 20V4C22.2222 3.64638 22.0759 3.30724 21.8154 3.05719C21.555 2.80714 21.2017 2.66667 20.8333 2.66667H4.16667Z" fill="black"/>
</svg>
