<svg width="16" height="10" viewBox="0 0 16 10" fill="none" xmlns="http://www.w3.org/2000/svg">
<path d="M15.551 0.465522C15.2667 0.167358 14.882 0 14.481 0C14.08 0 13.6953 0.167358 13.4109 0.465522L7.96205 6.13261L2.58905 0.465522C2.30468 0.167358 1.91999 0 1.51901 0C1.11803 0 0.73334 0.167358 0.448962 0.465522C0.306701 0.614344 0.193785 0.791402 0.116729 0.986483C0.0396722 1.18156 0 1.39081 0 1.60214C0 1.81348 0.0396722 2.02272 0.116729 2.2178C0.193785 2.41288 0.306701 2.58994 0.448962 2.73876L6.88442 9.52646C7.02552 9.67651 7.19339 9.79561 7.37835 9.87688C7.5633 9.95816 7.76169 10 7.96205 10C8.16242 10 8.36081 9.95816 8.54576 9.87688C8.73072 9.79561 8.89859 9.67651 9.03969 9.52646L15.551 2.73876C15.6933 2.58994 15.8062 2.41288 15.8833 2.2178C15.9603 2.02272 16 1.81348 16 1.60214C16 1.39081 15.9603 1.18156 15.8833 0.986483C15.8062 0.791402 15.6933 0.614344 15.551 0.465522Z" fill="black"/>
</svg>
