<svg width="30" height="32" viewBox="0 0 30 32" fill="none" xmlns="http://www.w3.org/2000/svg">
<g filter="url(#filter0_f_19_355)">
<path d="M24.625 14.5H16.375V5.5C16.375 5.10218 16.2301 4.72064 15.9723 4.43934C15.7144 4.15804 15.3647 4 15 4C14.6353 4 14.2856 4.15804 14.0277 4.43934C13.7699 4.72064 13.625 5.10218 13.625 5.5V14.5H5.375C5.01033 14.5 4.66059 14.658 4.40273 14.9393C4.14487 15.2206 4 15.6022 4 16C4 16.3978 4.14487 16.7794 4.40273 17.0607C4.66059 17.342 5.01033 17.5 5.375 17.5H13.625V26.5C13.625 26.8978 13.7699 27.2794 14.0277 27.5607C14.2856 27.842 14.6353 28 15 28C15.3647 28 15.7144 27.842 15.9723 27.5607C16.2301 27.2794 16.375 26.8978 16.375 26.5V17.5H24.625C24.9897 17.5 25.3394 17.342 25.5973 17.0607C25.8551 16.7794 26 16.3978 26 16C26 15.6022 25.8551 15.2206 25.5973 14.9393C25.3394 14.658 24.9897 14.5 24.625 14.5Z" fill="white"/>
</g>
<defs>
<filter id="filter0_f_19_355" x="0" y="0" width="30" height="32" filterUnits="userSpaceOnUse" color-interpolation-filters="sRGB">
<feFlood flood-opacity="0" result="BackgroundImageFix"/>
<feBlend mode="normal" in="SourceGraphic" in2="BackgroundImageFix" result="shape"/>
<feGaussianBlur stdDeviation="2" result="effect1_foregroundBlur_19_355"/>
</filter>
</defs>
</svg>
