<svg width="22" height="24" viewBox="0 0 22 24" fill="none" xmlns="http://www.w3.org/2000/svg">
<path d="M20.625 10.5H12.375V1.5C12.375 1.10218 12.2301 0.720645 11.9723 0.43934C11.7144 0.158036 11.3647 0 11 0C10.6353 0 10.2856 0.158036 10.0277 0.43934C9.76987 0.720645 9.625 1.10218 9.625 1.5V10.5H1.375C1.01033 10.5 0.660591 10.658 0.402728 10.9393C0.144866 11.2206 0 11.6022 0 12C0 12.3978 0.144866 12.7794 0.402728 13.0607C0.660591 13.342 1.01033 13.5 1.375 13.5H9.625V22.5C9.625 22.8978 9.76987 23.2794 10.0277 23.5607C10.2856 23.842 10.6353 24 11 24C11.3647 24 11.7144 23.842 11.9723 23.5607C12.2301 23.2794 12.375 22.8978 12.375 22.5V13.5H20.625C20.9897 13.5 21.3394 13.342 21.5973 13.0607C21.8551 12.7794 22 12.3978 22 12C22 11.6022 21.8551 11.2206 21.5973 10.9393C21.3394 10.658 20.9897 10.5 20.625 10.5Z" fill="white"/>
</svg>
