<svg width="8" height="14" viewBox="0 0 8 14" fill="none" xmlns="http://www.w3.org/2000/svg">
<path d="M7.5 13.501H0.5C0.367392 13.501 0.240215 13.4483 0.146447 13.3545C0.0526784 13.2608 0 13.1336 0 13.001V1.00098C0 0.868368 0.0526784 0.741191 0.146447 0.647423C0.240215 0.553655 0.367392 0.500977 0.5 0.500977H7.5C7.63261 0.500977 7.75979 0.553655 7.85355 0.647423C7.94732 0.741191 8 0.868368 8 1.00098V13.001C8 13.1336 7.94732 13.2608 7.85355 13.3545C7.75979 13.4483 7.63261 13.501 7.5 13.501ZM1 12.501H7V1.50098H1V12.501Z" fill="black"/>
</svg>
