<svg width="356" height="49" viewBox="0 0 356 49" fill="none" xmlns="http://www.w3.org/2000/svg">
<g filter="url(#filter0_f_7_148)">
<path d="M5 14C5 9.02944 9.02944 5 14 5H342C346.971 5 351 9.02944 351 14V35C351 39.9706 346.971 44 342 44H14C9.02945 44 5 39.9706 5 35V14Z" fill="#D8A64F"/>
<path d="M14 4.5C8.75329 4.5 4.5 8.75329 4.5 14V35C4.5 40.2467 8.7533 44.5 14 44.5H342C347.247 44.5 351.5 40.2467 351.5 35V14C351.5 8.75329 347.247 4.5 342 4.5H14Z" stroke="black"/>
</g>
<defs>
<filter id="filter0_f_7_148" x="0" y="0" width="356" height="49" filterUnits="userSpaceOnUse" color-interpolation-filters="sRGB">
<feFlood flood-opacity="0" result="BackgroundImageFix"/>
<feBlend mode="normal" in="SourceGraphic" in2="BackgroundImageFix" result="shape"/>
<feGaussianBlur stdDeviation="2" result="effect1_foregroundBlur_7_148"/>
</filter>
</defs>
</svg>
