<svg width="24" height="24" viewBox="0 0 24 24" fill="none" xmlns="http://www.w3.org/2000/svg">
<path d="M11.6445 0C9.38173 0.0042992 7.16904 0.66653 5.27594 1.90603C3.38284 3.14553 1.89105 4.9088 0.982272 6.98106C0.0734911 9.05333 -0.213054 11.3452 0.157538 13.5774C0.528129 15.8096 1.53986 17.8859 3.06951 19.5533C4.162 20.7376 5.48794 21.6827 6.96377 22.3291C8.4396 22.9755 10.0333 23.3092 11.6445 23.3092C13.2557 23.3092 14.8494 22.9755 16.3252 22.3291C17.8011 21.6827 19.127 20.7376 20.2195 19.5533C21.7491 17.8859 22.7609 15.8096 23.1315 13.5774C23.5021 11.3452 23.2155 9.05333 22.3067 6.98106C21.398 4.9088 19.9062 3.14553 18.0131 1.90603C16.12 0.66653 13.9073 0.0042992 11.6445 0ZM11.6445 21C9.22772 20.9963 6.90657 20.0553 5.16951 18.375C5.69689 17.0911 6.59405 15.993 7.74697 15.2202C8.89989 14.4474 10.2565 14.0348 11.6445 14.0348C13.0325 14.0348 14.3891 14.4474 15.542 15.2202C16.695 15.993 17.5921 17.0911 18.1195 18.375C16.3824 20.0553 14.0613 20.9963 11.6445 21ZM9.31117 9.33333C9.31117 8.87184 9.44802 8.42072 9.70441 8.037C9.9608 7.65329 10.3252 7.35422 10.7516 7.17761C11.1779 7.00101 11.6471 6.9548 12.0997 7.04483C12.5523 7.13487 12.9681 7.3571 13.2944 7.68342C13.6207 8.00974 13.843 8.4255 13.933 8.87812C14.023 9.33075 13.9768 9.7999 13.8002 10.2263C13.6236 10.6526 13.3246 11.017 12.9408 11.2734C12.5571 11.5298 12.106 11.6667 11.6445 11.6667C11.0257 11.6667 10.4322 11.4208 9.99459 10.9832C9.557 10.5457 9.31117 9.95217 9.31117 9.33333ZM19.7062 16.3333C18.6638 14.5504 17.0595 13.1635 15.1445 12.39C15.7385 11.7164 16.1256 10.8858 16.2592 9.99768C16.3929 9.10959 16.2674 8.2018 15.8979 7.38325C15.5284 6.5647 14.9305 5.87015 14.1761 5.38296C13.4216 4.89577 12.5426 4.63662 11.6445 4.63662C10.7464 4.63662 9.86741 4.89577 9.11295 5.38296C8.35849 5.87015 7.76064 6.5647 7.39113 7.38325C7.02162 8.2018 6.89616 9.10959 7.02979 9.99768C7.16342 10.8858 7.55048 11.7164 8.14451 12.39C6.22954 13.1635 4.62522 14.5504 3.58284 16.3333C2.75211 14.9183 2.31318 13.3075 2.31117 11.6667C2.31117 9.19131 3.2945 6.81734 5.04484 5.067C6.79518 3.31666 9.16915 2.33333 11.6445 2.33333C14.1199 2.33333 16.4938 3.31666 18.2442 5.067C19.9945 6.81734 20.9778 9.19131 20.9778 11.6667C20.9758 13.3075 20.5369 14.9183 19.7062 16.3333Z" fill="black"/>
</svg>
