<svg width="23" height="24" viewBox="0 0 23 24" fill="none" xmlns="http://www.w3.org/2000/svg">
<path d="M21.1244 10.5H12.7481V1.5C12.7481 1.10218 12.601 0.720645 12.3392 0.43934C12.0774 0.158036 11.7223 0 11.352 0C10.9818 0 10.6267 0.158036 10.3649 0.43934C10.1031 0.720645 9.95599 1.10218 9.95599 1.5V10.5H1.57972C1.20946 10.5 0.854372 10.658 0.592563 10.9393C0.330753 11.2206 0.18367 11.6022 0.18367 12C0.18367 12.3978 0.330753 12.7794 0.592563 13.0607C0.854372 13.342 1.20946 13.5 1.57972 13.5H9.95599V22.5C9.95599 22.8978 10.1031 23.2794 10.3649 23.5607C10.6267 23.842 10.9818 24 11.352 24C11.7223 24 12.0774 23.842 12.3392 23.5607C12.601 23.2794 12.7481 22.8978 12.7481 22.5V13.5H21.1244C21.4946 13.5 21.8497 13.342 22.1115 13.0607C22.3733 12.7794 22.5204 12.3978 22.5204 12C22.5204 11.6022 22.3733 11.2206 22.1115 10.9393C21.8497 10.658 21.4946 10.5 21.1244 10.5Z" fill="black"/>
</svg>
