<svg width="49" height="40" viewBox="0 0 49 40" fill="none" xmlns="http://www.w3.org/2000/svg">
<path fill-rule="evenodd" clip-rule="evenodd" d="M23.7344 28.6237V31.3738H25.2656V28.6237H23.7344Z" fill="#2B4255"/>
<path d="M21.4375 31.25H27.5625V36.25H21.4375V31.25Z" fill="#F8B84E"/>
<path fill-rule="evenodd" clip-rule="evenodd" d="M7.65479 33.2587V34.5087H21.436V33.2587H7.65479ZM27.561 33.2587V34.5087H41.3423V33.2587H27.561Z" fill="#2B4255"/>
<path d="M11.4829 4.9987C11.2799 4.9987 11.0851 5.0646 10.9415 5.18181C10.798 5.29902 10.7173 5.45794 10.7173 5.6237V10.6237C10.7173 10.7895 10.798 10.9485 10.9415 11.0658C11.0851 11.183 11.2799 11.2487 11.4829 11.2487H37.5142C37.7172 11.2487 37.9119 11.183 38.0555 11.0658C38.1991 10.9485 38.2798 10.7895 38.2798 10.6237V5.6237C38.2798 5.45794 38.1991 5.29902 38.0555 5.18181C37.9119 5.0646 37.7172 4.9987 37.5142 4.9987H11.4829ZM12.2485 6.2487H36.7485V9.9987H12.2485V6.2487Z" fill="#2B4255"/>
<path d="M15.3125 8.125C15.3125 8.29076 15.2318 8.44973 15.0883 8.56694C14.9447 8.68415 14.7499 8.75 14.5469 8.75C14.3438 8.75 14.1491 8.68415 14.0055 8.56694C13.8619 8.44973 13.7812 8.29076 13.7812 8.125C13.7812 7.95924 13.8619 7.80027 14.0055 7.68306C14.1491 7.56585 14.3438 7.5 14.5469 7.5C14.7499 7.5 14.9447 7.56585 15.0883 7.68306C15.2318 7.80027 15.3125 7.95924 15.3125 8.125ZM18.375 8.125C18.375 8.29076 18.2943 8.44973 18.1508 8.56694C18.0072 8.68415 17.8124 8.75 17.6094 8.75C17.4063 8.75 17.2116 8.68415 17.068 8.56694C16.9244 8.44973 16.8438 8.29076 16.8438 8.125C16.8438 7.95924 16.9244 7.80027 17.068 7.68306C17.2116 7.56585 17.4063 7.5 17.6094 7.5C17.8124 7.5 18.0072 7.56585 18.1508 7.68306C18.2943 7.80027 18.375 7.95924 18.375 8.125ZM21.4375 8.125C21.4375 8.29076 21.3568 8.44973 21.2133 8.56694C21.0697 8.68415 20.8749 8.75 20.6719 8.75C20.4688 8.75 20.2741 8.68415 20.1305 8.56694C19.9869 8.44973 19.9062 8.29076 19.9062 8.125C19.9062 7.95924 19.9869 7.80027 20.1305 7.68306C20.2741 7.56585 20.4688 7.5 20.6719 7.5C20.8749 7.5 21.0697 7.56585 21.2133 7.68306C21.3568 7.80027 21.4375 7.95924 21.4375 8.125ZM24.5 8.125C24.5 8.29076 24.4193 8.44973 24.2758 8.56694C24.1322 8.68415 23.9374 8.75 23.7344 8.75C23.5313 8.75 23.3366 8.68415 23.193 8.56694C23.0494 8.44973 22.9688 8.29076 22.9688 8.125C22.9688 7.95924 23.0494 7.80027 23.193 7.68306C23.3366 7.56585 23.5313 7.5 23.7344 7.5C23.9374 7.5 24.1322 7.56585 24.2758 7.68306C24.4193 7.80027 24.5 7.95924 24.5 8.125ZM27.5625 8.125C27.5625 8.29076 27.4818 8.44973 27.3383 8.56694C27.1947 8.68415 26.9999 8.75 26.7969 8.75C26.5938 8.75 26.3991 8.68415 26.2555 8.56694C26.1119 8.44973 26.0312 8.29076 26.0312 8.125C26.0312 7.95924 26.1119 7.80027 26.2555 7.68306C26.3991 7.56585 26.5938 7.5 26.7969 7.5C26.9999 7.5 27.1947 7.56585 27.3383 7.68306C27.4818 7.80027 27.5625 7.95924 27.5625 8.125Z" fill="#F8B84E"/>
<path d="M11.4829 13.7487C11.2799 13.7487 11.0851 13.8146 10.9415 13.9318C10.798 14.049 10.7173 14.2079 10.7173 14.3737V19.3737C10.7173 19.5395 10.798 19.6985 10.9415 19.8158C11.0851 19.933 11.2799 19.9987 11.4829 19.9987H37.5142C37.7172 19.9987 37.9119 19.933 38.0555 19.8158C38.1991 19.6985 38.2798 19.5395 38.2798 19.3737V14.3737C38.2798 14.2079 38.1991 14.049 38.0555 13.9318C37.9119 13.8146 37.7172 13.7487 37.5142 13.7487H11.4829ZM12.2485 14.9987H36.7485V18.7487H12.2485V14.9987Z" fill="#2B4255"/>
<path d="M15.3125 16.875C15.3125 17.0408 15.2318 17.1997 15.0883 17.3169C14.9447 17.4342 14.7499 17.5 14.5469 17.5C14.3438 17.5 14.1491 17.4342 14.0055 17.3169C13.8619 17.1997 13.7812 17.0408 13.7812 16.875C13.7812 16.7092 13.8619 16.5503 14.0055 16.4331C14.1491 16.3158 14.3438 16.25 14.5469 16.25C14.7499 16.25 14.9447 16.3158 15.0883 16.4331C15.2318 16.5503 15.3125 16.7092 15.3125 16.875ZM18.375 16.875C18.375 17.0408 18.2943 17.1997 18.1508 17.3169C18.0072 17.4342 17.8124 17.5 17.6094 17.5C17.4063 17.5 17.2116 17.4342 17.068 17.3169C16.9244 17.1997 16.8438 17.0408 16.8438 16.875C16.8438 16.7092 16.9244 16.5503 17.068 16.4331C17.2116 16.3158 17.4063 16.25 17.6094 16.25C17.8124 16.25 18.0072 16.3158 18.1508 16.4331C18.2943 16.5503 18.375 16.7092 18.375 16.875ZM21.4375 16.875C21.4375 17.0408 21.3568 17.1997 21.2133 17.3169C21.0697 17.4342 20.8749 17.5 20.6719 17.5C20.4688 17.5 20.2741 17.4342 20.1305 17.3169C19.9869 17.1997 19.9062 17.0408 19.9062 16.875C19.9062 16.7092 19.9869 16.5503 20.1305 16.4331C20.2741 16.3158 20.4688 16.25 20.6719 16.25C20.8749 16.25 21.0697 16.3158 21.2133 16.4331C21.3568 16.5503 21.4375 16.7092 21.4375 16.875ZM24.5 16.875C24.5 17.0408 24.4193 17.1997 24.2758 17.3169C24.1322 17.4342 23.9374 17.5 23.7344 17.5C23.5313 17.5 23.3366 17.4342 23.193 17.3169C23.0494 17.1997 22.9688 17.0408 22.9688 16.875C22.9688 16.7092 23.0494 16.5503 23.193 16.4331C23.3366 16.3158 23.5313 16.25 23.7344 16.25C23.9374 16.25 24.1322 16.3158 24.2758 16.4331C24.4193 16.5503 24.5 16.7092 24.5 16.875ZM27.5625 16.875C27.5625 17.0408 27.4818 17.1997 27.3383 17.3169C27.1947 17.4342 26.9999 17.5 26.7969 17.5C26.5938 17.5 26.3991 17.4342 26.2555 17.3169C26.1119 17.1997 26.0312 17.0408 26.0312 16.875C26.0312 16.7092 26.1119 16.5503 26.2555 16.4331C26.3991 16.3158 26.5938 16.25 26.7969 16.25C26.9999 16.25 27.1947 16.3158 27.3383 16.4331C27.4818 16.5503 27.5625 16.7092 27.5625 16.875Z" fill="#F8B84E"/>
<path d="M11.4829 22.4987C11.2799 22.4987 11.0851 22.5646 10.9415 22.6818C10.798 22.799 10.7173 22.9579 10.7173 23.1237V28.1237C10.7173 28.2895 10.798 28.4485 10.9415 28.5658C11.0851 28.683 11.2799 28.7487 11.4829 28.7487H37.5142C37.7172 28.7487 37.9119 28.683 38.0555 28.5658C38.1991 28.4485 38.2798 28.2895 38.2798 28.1237V23.1237C38.2798 22.9579 38.1991 22.799 38.0555 22.6818C37.9119 22.5646 37.7172 22.4987 37.5142 22.4987H11.4829ZM12.2485 23.7487H36.7485V27.4987H12.2485V23.7487Z" fill="#2B4255"/>
<path d="M15.3125 25.625C15.3125 25.7908 15.2318 25.9497 15.0883 26.0669C14.9447 26.1842 14.7499 26.25 14.5469 26.25C14.3438 26.25 14.1491 26.1842 14.0055 26.0669C13.8619 25.9497 13.7812 25.7908 13.7812 25.625C13.7812 25.4592 13.8619 25.3003 14.0055 25.1831C14.1491 25.0658 14.3438 25 14.5469 25C14.7499 25 14.9447 25.0658 15.0883 25.1831C15.2318 25.3003 15.3125 25.4592 15.3125 25.625ZM18.375 25.625C18.375 25.7908 18.2943 25.9497 18.1508 26.0669C18.0072 26.1842 17.8124 26.25 17.6094 26.25C17.4063 26.25 17.2116 26.1842 17.068 26.0669C16.9244 25.9497 16.8438 25.7908 16.8438 25.625C16.8438 25.4592 16.9244 25.3003 17.068 25.1831C17.2116 25.0658 17.4063 25 17.6094 25C17.8124 25 18.0072 25.0658 18.1508 25.1831C18.2943 25.3003 18.375 25.4592 18.375 25.625ZM21.4375 25.625C21.4375 25.7908 21.3568 25.9497 21.2133 26.0669C21.0697 26.1842 20.8749 26.25 20.6719 26.25C20.4688 26.25 20.2741 26.1842 20.1305 26.0669C19.9869 25.9497 19.9062 25.7908 19.9062 25.625C19.9062 25.4592 19.9869 25.3003 20.1305 25.1831C20.2741 25.0658 20.4688 25 20.6719 25C20.8749 25 21.0697 25.0658 21.2133 25.1831C21.3568 25.3003 21.4375 25.4592 21.4375 25.625ZM24.5 25.625C24.5 25.7908 24.4193 25.9497 24.2758 26.0669C24.1322 26.1842 23.9374 26.25 23.7344 26.25C23.5313 26.25 23.3366 26.1842 23.193 26.0669C23.0494 25.9497 22.9688 25.7908 22.9688 25.625C22.9688 25.4592 23.0494 25.3003 23.193 25.1831C23.3366 25.0658 23.5313 25 23.7344 25C23.9374 25 24.1322 25.0658 24.2758 25.1831C24.4193 25.3003 24.5 25.4592 24.5 25.625ZM27.5625 25.625C27.5625 25.7908 27.4818 25.9497 27.3383 26.0669C27.1947 26.1842 26.9999 26.25 26.7969 26.25C26.5938 26.25 26.3991 26.1842 26.2555 26.0669C26.1119 25.9497 26.0312 25.7908 26.0312 25.625C26.0312 25.4592 26.1119 25.3003 26.2555 25.1831C26.3991 25.0658 26.5938 25 26.7969 25C26.9999 25 27.1947 25.0658 27.3383 25.1831C27.4818 25.3003 27.5625 25.4592 27.5625 25.625Z" fill="#F8B84E"/>
<path fill-rule="evenodd" clip-rule="evenodd" d="M23.7344 19.8737V22.6238H25.2656V19.8737H23.7344ZM23.7344 11.1237V13.8738H25.2656V11.1237H23.7344Z" fill="#2B4255"/>
</svg>
