<svg width="27" height="28" viewBox="0 0 27 28" fill="none" xmlns="http://www.w3.org/2000/svg">
<path d="M13.5 0C9.92081 0.0041502 6.48935 1.48048 3.95848 4.10509C1.4276 6.7297 0.00400198 10.2882 0 14C0.00599692 17.7111 1.43024 21.2685 3.96068 23.8926C6.49112 26.5168 9.92142 27.9938 13.5 28C17.0804 28 20.5142 26.525 23.0459 23.8995C25.5777 21.274 27 17.713 27 14C27 10.287 25.5777 6.72601 23.0459 4.1005C20.5142 1.475 17.0804 0 13.5 0ZM21.7112 22.0786C20.9531 20.4926 19.7826 19.158 18.3319 18.2253C16.8812 17.2925 15.208 16.7987 13.5011 16.7997C11.7942 16.8006 10.1215 17.2962 8.67176 18.2305C7.22201 19.1649 6.0529 20.5008 5.29632 22.0875C3.27771 19.9164 2.15292 17.0159 2.16 14C2.16 10.8811 3.35475 7.88985 5.48141 5.68442C7.60807 3.479 10.4924 2.24 13.5 2.24C16.5076 2.24 19.3919 3.479 21.5186 5.68442C23.6453 7.88985 24.84 10.8811 24.84 14C24.8468 17.0117 23.7249 19.9084 21.7112 22.0786ZM13.5 5.6C12.5388 5.6 11.5992 5.89559 10.7999 6.44939C10.0007 7.0032 9.37779 7.79034 9.00994 8.71128C8.6421 9.63222 8.54586 10.6456 8.73338 11.6233C8.92091 12.6009 9.38378 13.499 10.0635 14.2038C10.7431 14.9087 11.6091 15.3887 12.5519 15.5832C13.4946 15.7776 14.4718 15.6778 15.3598 15.2964C16.2479 14.9149 17.0069 14.2689 17.5409 13.4401C18.075 12.6112 18.36 11.6368 18.36 10.64C18.36 9.97814 18.2343 9.32276 17.9901 8.71128C17.7458 8.09979 17.3878 7.54419 16.9365 7.07618C16.4852 6.60817 15.9495 6.23693 15.3598 5.98365C14.7702 5.73036 14.1382 5.6 13.5 5.6Z" fill="black"/>
</svg>
